<svg xmlns="http://www.w3.org/2000/svg" width="512" height="512" viewBox="0 0 512 512" version="1.1"><path d="" stroke="none" fill="#080404" fill-rule="evenodd"/><path d="M 179.892 2.306 C 172.798 5.285, 168.910 8.056, 165.206 12.769 C 158.623 21.146, 155.857 29.773, 155.857 41.930 C 155.857 56.838, 161.292 69.250, 172.608 80.184 C 180.310 87.626, 187.092 96.715, 189.994 103.485 C 192.406 109.112, 192.532 108.952, 183.217 112.077 C 175.654 114.615, 171.342 118.037, 168.880 123.459 C 166.042 129.706, 166.572 133.581, 172.500 149.911 C 175.525 158.244, 178 165.167, 178 165.296 C 178 165.426, 174.287 165.223, 169.750 164.845 C 146.723 162.930, 137.317 164.365, 135.952 170 C 135.166 173.245, 136.717 177.778, 139.039 179.021 C 140.045 179.559, 145.800 180, 151.828 180 C 182.349 180, 214.341 186.693, 234.302 197.254 C 243.146 201.933, 251.548 209.350, 252.557 213.370 C 253.447 216.919, 250.492 221.694, 244.953 225.654 C 242.504 227.405, 239.199 230.035, 237.608 231.499 C 234.748 234.132, 234.723 234.250, 235.357 242.330 C 235.710 246.824, 236.296 261.848, 236.659 275.717 L 237.319 300.934 167.909 301.217 L 98.500 301.500 90.295 306.251 L 82.091 311.001 78.470 308.544 C 76.478 307.193, 74.046 305.832, 73.066 305.521 C 70.322 304.650, 69.872 295.108, 71.056 262.918 C 71.836 241.700, 71.809 234.043, 70.949 232.527 C 70.316 231.412, 67.032 228.700, 63.649 226.500 C 59.906 224.065, 56.746 221.092, 55.573 218.902 C 53.665 215.338, 53.666 215.265, 55.650 211.402 C 60.083 202.771, 78.836 192.611, 101 186.834 C 107.325 185.185, 113.252 183.085, 114.171 182.168 C 117.111 179.233, 116.912 173.941, 113.750 170.949 C 110.782 168.140, 105.303 168.742, 90.145 173.542 C 49.375 186.452, 30.901 206.348, 41.537 225.891 C 44.100 230.600, 50.248 237.282, 54.144 239.592 C 55.483 240.386, 55.617 244.406, 55.210 271.643 L 54.745 302.785 50.622 303.423 C 40.163 305.042, 29.331 313.791, 24.180 324.782 C 21.816 329.826, 21.506 331.679, 21.553 340.500 L 21.606 350.500 45.323 418.823 C 58.367 456.400, 70.111 489.259, 71.420 491.843 C 74.533 497.984, 82.622 505.464, 89.782 508.820 L 95.500 511.500 253.500 511.500 L 411.500 511.500 417.121 508.739 C 424.657 505.039, 430.971 499.306, 434.351 493.097 C 437.596 487.134, 483.587 354.390, 485.214 346.290 C 487.455 335.130, 482.870 321.640, 473.850 312.854 L 468.897 308.030 472.835 297.265 C 479.935 277.852, 486.195 254.863, 486.198 248.189 C 486.201 242.174, 481.053 239.097, 475.143 241.582 C 472.881 242.533, 471.872 243.821, 471.149 246.677 C 463.967 275.078, 462.117 281.272, 456.042 297.250 L 453.856 303 447.463 303 C 440.407 303, 433.656 304.929, 427.820 308.614 L 423.997 311.027 420.249 308.585 C 410.420 302.184, 394.701 301.122, 383.935 306.131 L 378.370 308.720 376.595 303.722 C 373.449 294.866, 362.337 285.689, 341.816 275 L 331.133 269.436 335.411 256.468 C 338.891 245.919, 346.450 226.267, 347.414 225.262 C 347.540 225.131, 352.482 226.117, 358.396 227.454 C 375.007 231.207, 386.900 232.366, 394.920 231.013 C 407.068 228.965, 411.511 224.546, 411.483 214.544 C 411.451 203.798, 402.598 188.466, 389.035 175.671 L 381.849 168.893 387.501 162.456 C 399.011 149.346, 417.608 136.853, 429.867 133.995 C 440.880 131.428, 452.429 135.024, 459.461 143.210 C 466.661 151.592, 472.601 167.680, 474.520 184 C 474.876 187.025, 475.249 195.733, 475.349 203.351 C 475.524 216.567, 475.640 217.290, 477.877 219.101 C 481.149 221.751, 485.571 221.520, 488.545 218.545 C 490.917 216.174, 491 215.620, 491 202.118 C 491 178.786, 487.914 162.768, 480.435 147.277 C 461.788 108.656, 422.778 107.203, 383.999 143.683 C 364.668 161.868, 343.160 194.070, 331.500 222.284 C 329.300 227.607, 327.241 231.971, 326.925 231.981 C 326.609 231.992, 315.191 201.288, 301.551 163.750 C 287.912 126.212, 275.870 94.252, 274.792 92.727 C 273.714 91.202, 271.182 89.120, 269.166 88.099 C 262.384 84.667, 259.852 84.646, 250.024 87.938 C 244.998 89.622, 240.758 91, 240.601 91 C 239.948 91, 237.987 82.973, 237.054 76.478 C 236.357 71.626, 236.396 66.149, 237.183 58.500 C 238.164 48.960, 238.087 46.477, 236.598 39.792 C 232.969 23.490, 223.602 10.879, 210.200 4.253 C 203.481 0.930, 201.631 0.469, 194.056 0.225 C 186.919 -0.004, 184.570 0.341, 179.892 2.306 M 190.500 15.680 C 189.400 15.899, 187.476 16.297, 186.225 16.564 C 182.788 17.299, 175.903 23.988, 173.938 28.500 C 170.176 37.143, 170.663 48.493, 175.203 57.965 C 176.399 60.459, 181.256 66.550, 185.997 71.500 C 195.906 81.846, 199.995 87.506, 204.101 96.563 C 205.706 100.103, 207.299 103, 207.639 103 C 207.980 103, 212.182 101.580, 216.976 99.845 L 225.694 96.690 223.633 90.595 C 221.824 85.244, 221.558 81.877, 221.454 63 C 221.325 39.413, 220.880 37.046, 214.953 28.432 C 209.220 20.098, 197.918 14.205, 190.500 15.680 M 221.500 114.944 C 194.197 124.894, 183.406 129.260, 183.166 130.451 C 182.721 132.660, 194.886 166.189, 196.653 167.623 C 197.414 168.241, 200.666 169.264, 203.880 169.897 C 214.174 171.922, 228.181 176.896, 239.951 182.705 C 249.288 187.313, 252.730 189.663, 258.589 195.429 C 264.477 201.222, 266.066 203.481, 267.388 207.932 C 269.406 214.732, 269.401 216.449, 267.345 222.572 C 266.112 226.243, 263.852 229.319, 258.487 234.630 L 251.284 241.760 252.270 271.130 C 252.813 287.283, 253.461 300.725, 253.712 301 C 253.962 301.275, 263.917 301.526, 275.834 301.558 C 287.750 301.590, 299.840 301.983, 302.700 302.430 C 308.641 303.360, 307.707 304.848, 310.503 290 C 311.383 285.325, 313.483 276.100, 315.169 269.500 C 316.855 262.900, 318.243 257.050, 318.252 256.500 C 318.281 254.869, 262.911 103.614, 261.786 102.250 C 261.219 101.563, 260.473 101.021, 260.128 101.047 C 259.782 101.073, 242.400 107.326, 221.500 114.944 M 370.749 183.782 C 367.043 188.020, 354.412 209.745, 355.197 210.530 C 356.185 211.518, 377.099 215.090, 384.690 215.568 C 395.930 216.275, 396.918 215.692, 394.628 209.697 C 392.337 203.697, 387.751 196.925, 381.153 189.798 C 374.336 182.435, 372.736 181.510, 370.749 183.782 M 325.230 296.741 C 322.557 311.902, 322.908 312.403, 332.692 307.383 C 338.570 304.367, 341.225 303.635, 348.145 303.121 L 356.500 302.500 350.500 298.387 C 347.200 296.124, 340.631 292.183, 335.901 289.628 L 327.302 284.982 325.230 296.741 M 101.330 318.582 C 100.958 319.552, 101.653 321.058, 103.110 322.436 C 104.424 323.681, 122.622 341.079, 143.548 361.099 C 164.475 381.120, 184.573 400.313, 188.212 403.750 C 194.373 409.571, 195.146 410, 199.473 410 C 204.951 410, 198.729 415.452, 256.428 360.097 C 279.018 338.426, 297.500 319.976, 297.500 319.097 C 297.500 317.647, 288.514 317.477, 199.721 317.245 C 111.072 317.014, 101.884 317.139, 101.330 318.582 M 53.500 318.935 C 39.513 322.340, 33.451 335.555, 38.789 351 L 40.690 356.500 78.595 356.741 L 116.500 356.981 101.500 342.385 C 87.325 328.591, 86.271 327.779, 82.336 327.619 C 79.359 327.499, 76.650 326.404, 72.836 323.782 C 69.901 321.764, 65.475 319.649, 63 319.081 C 57.947 317.922, 57.678 317.918, 53.500 318.935 M 344.353 319.431 C 342.071 320.145, 338.084 322.252, 335.490 324.114 C 329.375 328.506, 324.162 328.696, 318.192 324.746 L 314.030 321.992 312.528 325.746 C 311.536 328.224, 306.177 334.166, 296.763 343.226 L 282.500 356.953 374.109 356.976 L 465.719 357 467.859 350.479 C 471.376 339.767, 470.324 332.578, 464.259 325.864 C 459.254 320.325, 455.602 318.654, 448.500 318.654 C 442.206 318.654, 438.375 320.110, 432.078 324.898 C 429.526 326.838, 427.471 327.500, 424 327.500 C 420.529 327.500, 418.474 326.838, 415.922 324.898 C 405.084 316.658, 396.176 316.282, 385.362 323.609 C 377.388 329.010, 374.400 329.075, 366.046 324.028 C 359.618 320.144, 353.776 317.982, 350 318.091 C 349.175 318.114, 346.634 318.718, 344.353 319.431 M 79.254 388.746 L 95 404.492 110.746 388.746 L 126.492 373 95 373 L 63.508 373 79.254 388.746 M 290.254 388.746 L 306 404.492 321.746 388.746 L 337.492 373 306 373 L 274.508 373 290.254 388.746 M 396 388.500 L 411.476 404 426.738 388.762 C 435.132 380.381, 442 373.406, 442 373.262 C 442 373.118, 428.168 373, 411.262 373 L 380.524 373 396 388.500 M 337.741 394.759 L 317 415.518 337.759 436.259 L 358.518 457 379.259 436.241 L 400 415.482 379.241 394.741 L 358.482 374 337.741 394.759 M 250.500 387.738 C 246.100 391.976, 236.729 401.044, 229.676 407.888 L 216.853 420.333 235.167 438.667 L 253.481 457.001 274.240 436.260 L 294.999 415.519 277.260 397.760 C 267.503 387.992, 259.291 380.007, 259.010 380.016 C 258.730 380.025, 254.900 383.499, 250.500 387.738 M 56.976 403.750 C 61.290 416.262, 65.331 427.820, 65.955 429.433 L 67.090 432.366 75.551 423.950 L 84.012 415.533 66.767 398.266 C 57.282 388.770, 49.434 381, 49.326 381 C 49.219 381, 52.661 391.238, 56.976 403.750 M 123.240 398.260 L 106.001 415.519 126.760 436.261 L 147.519 457.002 165.409 439.091 L 183.299 421.181 168.899 407.316 C 148.668 387.835, 141.396 381, 140.904 381 C 140.670 381, 132.721 388.767, 123.240 398.260 M 439.733 398.766 L 422.989 415.533 431.494 423.994 C 436.172 428.648, 440 432.201, 440 431.889 C 440 431.578, 443.814 420.225, 448.475 406.661 C 453.136 393.098, 456.843 382, 456.714 382 C 456.584 382, 448.943 389.545, 439.733 398.766 M 83.537 437.963 L 72.608 448.925 78.324 465.713 C 86.172 488.763, 89.894 493.591, 101.706 496.043 L 107.290 497.202 121.888 482.603 L 136.487 468.005 116.002 447.502 C 104.736 436.226, 95.282 427, 94.992 427 C 94.703 427, 89.548 431.933, 83.537 437.963 M 179.739 447.761 L 158.996 468.522 173.260 482.761 L 187.525 497 200.525 497 L 213.526 497 227.761 482.739 L 241.996 468.479 221.239 447.739 L 200.482 427 179.739 447.761 M 285.002 447.498 L 264.522 467.996 278.998 482.498 L 293.474 497 306 497 L 318.526 497 333.002 482.498 L 347.478 467.996 326.998 447.498 C 315.734 436.224, 306.285 427, 306 427 C 305.715 427, 296.266 436.224, 285.002 447.498 M 390.736 447.764 L 369.996 468.522 384.370 482.870 L 398.744 497.219 403.122 496.490 C 410.366 495.283, 416.819 491.259, 420.487 485.661 C 421.297 484.423, 424.635 475.739, 427.903 466.362 L 433.845 449.312 422.660 438.160 L 411.475 427.007 390.736 447.764 M 139 488.500 L 130.544 497 148 497 L 165.456 497 157 488.500 C 152.349 483.825, 148.299 480, 148 480 C 147.701 480, 143.651 483.825, 139 488.500 M 244 488.500 L 235.544 497 253 497 L 270.456 497 262 488.500 C 257.349 483.825, 253.299 480, 253 480 C 252.701 480, 248.651 483.825, 244 488.500 M 350 488.500 L 341.544 497 359 497 L 376.456 497 368 488.500 C 363.349 483.825, 359.299 480, 359 480 C 358.701 480, 354.651 483.825, 350 488.500" stroke="none" fill="#040404" fill-rule="evenodd"/></svg>